<?xml version="1.0" standalone="no"?>
<!DOCTYPE svg PUBLIC "-//W3C//DTD SVG 20010904//EN" "http://www.w3.org/TR/2001/REC-SVG-20010904/DTD/svg10.dtd">
<svg xmlns="http://www.w3.org/2000/svg" version="1.0" width="1280.000000pt" height="929.000000pt" viewBox="0 0 1280.000000 929.000000" preserveAspectRatio="xMidYMid meet">
<metadata>
Created by potrace 1.16, written by Peter Selinger 2001-2019
<meta name="Producer" content="Online-Convert"/></metadata>
<g transform="translate(0.000000,929.000000) scale(0.100000,-0.100000)" fill="#000000" stroke="none">
<path d="M0 4645 l0 -4645 6400 0 6400 0 0 4645 0 4645 -6400 0 -6400 0 0 -4645z m6468 3706 c23 -11 45 -16 57 -11 69 25 251 -106 312 -223 18 -36 11 -82 -18 -113 l-21 -22 62 -42 c324 -220 528 -613 571 -1104 25 -286 -43 -642 -172 -898 -25 -49 -35 -78 -27 -78 7 0 408 0 891 0 872 0 877 0 877 -20 0 -20 -5 -20 -1007 -20 l-1007 0 -23 -22 c-13 -12 -23 -25 -23 -30 0 -4 599 -8 1330 -8 1176 0 1330 -2 1330 -15 0 -13 -157 -15 -1353 -15 l-1352 0 -66 -48 c-261 -190 -602 -188 -859 7 l-54 41 -1364 0 c-1293 0 -1363 1 -1360 18 3 16 75 17 1341 17 735 0 1337 2 1337 4 0 3 -10 15 -22 28 l-21 23 -1029 0 c-975 0 -1029 1 -1026 18 3 17 123 19 1800 22 13 0 7 19 -32 93 -61 116 -110 259 -141 407 -21 102 -24 141 -24 350 0 151 5 257 13 295 74 351 188 588 378 785 48 49 117 111 155 136 64 44 67 48 50 61 -27 18 -44 76 -35 116 15 70 98 161 184 202 30 14 66 33 80 41 18 11 42 13 85 10 33 -3 67 -1 75 4 24 15 67 12 108 -9z m-2878 -3062 l0 -69 38 0 c73 -1 154 -55 192 -130 46 -91 49 -250 6 -385 -41 -130 -107 -203 -191 -212 l-44 -6 -3 -101 -3 -101 -60 0 -60 0 -3 101 -3 101 -44 6 c-113 12 -194 140 -217 342 -26 218 58 368 213 383 l49 5 0 68 c0 76 2 78 88 70 l42 -3 0 -69z m1621 48 c59 -40 109 -149 109 -237 0 -70 -27 -179 -60 -247 -37 -74 -116 -164 -176 -199 l-44 -26 -2 -171 -3 -172 -60 0 -60 0 -3 537 -2 537 22 3 c13 2 75 1 138 -2 88 -4 121 -9 141 -23z m281 24 c17 -1 18 -29 20 -408 l3 -408 103 163 102 163 0 245 0 244 65 0 65 0 -3 -537 -2 -538 -60 0 -60 0 -5 170 -5 170 -99 -155 c-54 -85 -105 -162 -113 -171 -9 -11 -29 -16 -66 -15 l-52 1 -3 537 -2 537 22 3 c13 2 34 2 48 1 14 -1 33 -2 42 -2z m1866 -160 l3 -162 26 3 c18 2 35 15 50 36 21 33 30 64 54 210 l12 72 64 0 65 0 -7 -42 c-19 -126 -48 -255 -66 -290 l-20 -39 21 -28 c29 -41 48 -128 60 -266 5 -66 15 -176 21 -245 5 -69 11 -134 12 -145 2 -18 -4 -20 -63 -20 l-65 0 -7 75 c-4 41 -12 144 -18 228 -18 253 -35 302 -107 302 l-33 0 -2 -302 -3 -303 -60 0 -60 0 -3 537 c-2 603 -11 544 77 542 l46 -1 3 -162z m472 105 c16 -79 44 -149 75 -190 15 -20 31 -36 34 -36 4 0 27 60 50 133 24 72 46 135 50 139 5 6 184 12 237 9 6 -1 33 -68 60 -151 27 -82 52 -150 55 -150 3 0 20 46 38 103 18 56 40 125 49 152 l17 50 60 -3 c33 -2 61 -5 63 -7 2 -1 -15 -58 -37 -126 -22 -68 -58 -178 -79 -243 l-38 -119 34 -111 c63 -207 132 -441 135 -456 1 -11 -11 -15 -55 -16 -33 -1 -61 3 -66 10 -5 6 -28 76 -52 156 -54 178 -67 210 -74 190 -3 -8 -27 -91 -54 -185 l-48 -170 -62 -2 c-34 -1 -62 2 -62 8 0 14 40 161 126 469 30 104 30 113 0 202 -14 40 -44 134 -67 208 -23 74 -45 139 -49 144 -5 5 -15 -13 -24 -40 -8 -27 -46 -141 -84 -254 -95 -279 -128 -440 -145 -700 l-2 -35 -60 0 -60 0 3 110 c4 175 39 387 82 499 8 22 5 31 -26 63 -46 50 -118 196 -149 303 -13 47 -25 88 -25 92 0 7 118 16 132 10 4 -1 12 -27 18 -56z m-3581 -38 c38 -286 51 -390 61 -453 5 -38 17 -126 25 -195 9 -69 22 -170 29 -225 8 -54 13 -102 10 -106 -2 -4 -30 -7 -62 -6 l-57 2 -12 85 c-13 91 -51 379 -62 470 l-6 55 -45 0 -45 0 -7 -60 c-6 -54 -27 -217 -58 -454 -6 -47 -13 -88 -16 -93 -6 -9 -113 -8 -118 1 -2 3 2 53 10 111 7 58 23 173 34 255 11 83 29 220 40 305 12 85 25 189 31 230 5 41 13 96 16 123 l6 47 107 0 107 0 12 -92z m554 32 c0 -30 -1 -61 -2 -67 -1 -10 -33 -13 -126 -13 l-125 0 0 -83 0 -83 54 -23 c92 -38 178 -142 223 -268 23 -67 24 -241 0 -305 -51 -144 -125 -184 -322 -176 l-80 3 -3 538 -2 537 192 -2 193 -3 -2 -55z m1257 -100 l0 -160 24 0 c14 0 34 12 49 29 23 28 33 65 58 219 l12 72 64 0 c34 0 63 -3 63 -7 0 -47 -46 -270 -64 -308 l-22 -50 26 -53 c30 -58 43 -135 61 -362 6 -80 15 -176 19 -215 4 -38 6 -73 3 -77 -7 -14 -123 -9 -127 5 -2 6 -9 84 -15 172 -22 299 -31 364 -58 396 -18 22 -34 29 -59 29 l-34 0 -2 -302 -3 -303 -60 0 -60 0 -3 538 -2 537 65 0 65 0 0 -160z m684 118 c7 -44 13 -88 46 -343 18 -143 29 -226 50 -380 5 -38 15 -110 22 -160 6 -49 12 -103 12 -120 l1 -30 -60 0 -60 0 -12 90 c-40 315 -54 426 -61 470 l-7 50 -42 3 c-49 4 -44 13 -62 -138 -7 -52 -16 -124 -21 -160 -5 -36 -14 -110 -21 -165 -17 -150 -17 -149 -74 -153 -71 -5 -73 -2 -65 60 4 29 13 94 19 143 7 50 16 119 21 155 10 73 23 175 40 300 6 47 15 114 20 150 5 36 15 111 22 168 l12 102 107 0 106 0 7 -42z m2055 35 c-1 -5 -1 -77 0 -160 l1 -153 95 0 95 0 0 160 0 160 60 0 60 0 -2 -537 -3 -537 -57 -3 -58 -2 0 305 0 304 -95 0 -95 0 -2 -302 -3 -303 -60 0 -60 0 -3 538 -2 537 65 0 c36 0 64 -3 64 -7z m799 -530 l-3 -538 -57 -1 c-53 -2 -58 0 -58 20 0 11 -1 147 -3 301 l-2 280 -41 3 c-41 3 -42 2 -64 -43 -19 -39 -26 -86 -44 -303 l-21 -257 -60 0 -60 0 3 100 c6 194 39 468 63 524 l22 52 -21 22 c-27 29 -62 120 -62 162 0 46 27 125 54 154 49 55 71 61 219 61 l137 0 -2 -537z m-2440 -40 l3 -73 -121 0 -120 0 0 75 0 76 118 -3 117 -3 3 -72z m-2478 -1042 c0 -43 -4 -60 -15 -65 -8 -3 -15 -15 -15 -26 0 -11 7 -20 15 -20 11 0 15 -13 16 -55 1 -30 2 -65 2 -77 1 -21 -3 -23 -61 -26 l-62 -3 0 99 c0 113 14 159 62 204 47 44 58 38 58 -31z m160 0 c0 -43 -4 -60 -15 -65 -8 -3 -15 -12 -15 -21 0 -9 7 -18 15 -21 12 -5 15 -24 15 -85 l0 -79 -60 0 -60 0 0 102 c0 113 18 170 67 208 43 34 53 27 53 -39z m460 -31 l0 -69 -122 -3 -123 -3 0 -84 0 -84 45 -15 c62 -21 157 -118 198 -202 88 -178 55 -429 -66 -515 -42 -29 -47 -30 -173 -33 l-129 -4 0 541 0 541 185 0 185 0 0 -70z m940 0 l0 -69 -77 -3 -78 -3 -3 -467 -2 -468 -60 0 -60 0 -2 468 -3 467 -82 3 -83 3 0 69 0 70 225 0 225 0 0 -70z m1190 -84 l0 -155 54 -24 c150 -69 240 -227 240 -422 0 -157 -46 -260 -137 -304 -39 -19 -59 -21 -163 -19 l-119 3 -3 468 -2 467 -75 0 -75 0 0 70 0 70 140 0 140 0 0 -154z m490 68 c0 -48 -5 -104 -11 -125 -16 -53 -65 -109 -95 -109 -22 0 -24 4 -24 53 0 40 5 57 20 70 11 9 20 21 20 26 0 5 -9 11 -20 14 -18 5 -20 14 -20 81 l0 76 65 0 65 0 0 -86z m160 0 c0 -48 -5 -105 -12 -127 -15 -48 -67 -107 -97 -107 -19 0 -21 6 -21 53 0 40 5 57 20 70 11 9 20 21 20 26 0 5 -9 11 -20 14 -18 5 -20 14 -20 81 l0 76 65 0 65 0 0 -86z m-1515 -258 c45 -30 95 -172 95 -271 l0 -45 -130 0 -130 0 6 -42 c11 -79 34 -146 60 -178 30 -35 73 -60 104 -60 18 0 20 -6 20 -76 l0 -77 -41 7 c-93 15 -160 73 -211 183 -108 229 -44 572 109 585 45 4 87 -6 118 -26z m302 7 c78 -36 186 -183 223 -300 48 -156 32 -273 -52 -368 -40 -47 -97 -75 -148 -75 l-40 0 0 -110 0 -110 -60 0 -60 0 -2 491 c-2 270 -1 493 2 495 8 9 104 -7 137 -23z m-1322 -100 c22 -62 42 -113 45 -113 3 0 16 46 29 103 14 56 26 108 29 115 5 14 132 17 132 3 0 -6 -22 -92 -50 -193 -27 -101 -59 -219 -71 -263 -12 -44 -25 -93 -31 -110 -7 -26 -65 -238 -98 -362 l-11 -43 -64 0 -64 0 14 48 c7 26 39 145 70 264 l57 217 -26 73 c-14 40 -50 138 -80 218 -29 80 -51 149 -49 153 3 4 32 7 66 5 l62 -3 40 -112z m589 -1114 c43 -51 36 -96 -34 -233 -33 -64 -58 -122 -54 -127 3 -6 25 -10 48 -9 63 3 66 2 66 -25 0 -25 -1 -25 -90 -25 l-90 0 6 43 c3 23 30 91 60 150 45 89 55 115 52 150 -3 38 -6 42 -28 41 -14 0 -35 -4 -47 -8 -21 -7 -23 -4 -23 28 0 38 8 43 72 45 29 1 41 -5 62 -30z m217 5 c23 -25 24 -31 24 -172 0 -194 -24 -262 -93 -262 -55 0 -82 85 -83 256 0 175 12 201 92 203 26 1 42 -6 60 -25z m207 3 c48 -51 38 -123 -34 -251 -25 -44 -46 -89 -47 -100 -2 -19 4 -21 53 -22 52 0 55 -1 58 -27 l3 -27 -89 0 -89 0 4 43 c2 24 27 89 59 152 45 89 55 119 52 150 -3 37 -5 40 -33 39 -16 0 -38 -4 -47 -8 -15 -7 -18 -3 -18 27 0 40 8 45 66 46 30 1 46 -5 62 -22z m227 -12 c-1 -29 -3 -30 -48 -33 -46 -3 -47 -4 -47 -36 0 -29 3 -33 26 -33 38 0 72 -39 84 -97 21 -104 -27 -226 -90 -226 -47 0 -60 9 -60 45 0 33 0 33 30 22 45 -17 63 7 68 87 6 92 -25 137 -61 86 -9 -13 -20 -18 -31 -14 -13 5 -16 24 -16 121 l0 114 73 -3 72 -3 0 -30z m-1085 -215 c0 -20 -7 -20 -1255 -20 -1248 0 -1255 0 -1255 20 0 20 7 20 1255 20 1248 0 1255 0 1255 -20z m3900 0 c0 -20 -7 -20 -1255 -20 -1248 0 -1255 0 -1255 20 0 20 7 20 1255 20 1248 0 1255 0 1255 -20z"/>
<path d="M6295 8021 c-188 -30 -357 -123 -503 -275 -176 -184 -292 -417 -354 -714 -20 -92 -23 -137 -22 -327 0 -200 2 -231 26 -340 15 -66 41 -160 58 -210 31 -87 109 -255 131 -282 8 -9 36 -13 86 -13 l74 0 -45 63 c-97 137 -187 358 -222 552 -22 123 -30 365 -14 479 69 518 332 891 710 1007 111 34 264 32 380 -4 133 -42 221 -97 331 -206 184 -182 290 -391 351 -689 32 -157 31 -440 -1 -602 -42 -205 -116 -388 -217 -532 -42 -61 -43 -63 -21 -69 12 -3 31 -5 42 -4 11 2 34 3 51 4 29 1 34 7 77 94 58 118 110 269 145 417 25 108 27 129 26 345 0 211 -3 240 -27 345 -111 490 -393 840 -757 939 -84 24 -230 34 -305 22z"/>
<path d="M6280 7926 c-288 -61 -535 -308 -659 -660 -59 -167 -81 -303 -81 -506 0 -160 13 -267 50 -402 88 -330 302 -609 548 -712 420 -177 862 82 1050 615 61 173 77 273 77 494 0 194 -7 258 -40 390 -85 333 -294 615 -540 729 -120 55 -286 77 -405 52z m300 -134 c97 -32 184 -88 275 -177 88 -87 137 -156 195 -274 175 -356 171 -824 -9 -1178 -89 -177 -248 -338 -395 -403 -239 -106 -502 -52 -701 145 -152 149 -245 326 -301 570 -22 96 -30 394 -14 494 44 266 151 493 307 647 90 90 214 162 328 191 74 18 235 11 315 -15z"/>
<path d="M6284 7705 c-77 -17 -224 -87 -224 -107 0 -5 74 -8 165 -8 l166 0 -3 -62 -3 -63 -167 -3 -168 -2 0 -95 c0 -84 2 -95 18 -95 32 -1 131 -47 183 -86 67 -52 144 -153 170 -225 l22 -59 253 0 254 0 0 -65 0 -65 -105 0 -105 0 0 -421 0 -420 37 28 c56 43 159 178 203 268 84 172 120 333 120 541 0 320 -109 599 -306 783 -151 141 -329 196 -510 156z"/>
<path d="M5869 7394 c-68 -103 -123 -240 -155 -389 -27 -122 -24 -379 5 -508 79 -351 308 -623 568 -677 66 -14 219 -8 271 10 l32 12 0 464 0 464 -69 0 -69 0 -6 -47 c-10 -68 -60 -167 -104 -203 -58 -48 -115 -60 -289 -60 l-153 0 -2 487 -3 487 -26 -40z"/>
<path d="M6050 6856 l0 -266 69 0 c82 0 125 24 156 85 29 57 28 192 -2 256 -37 81 -124 161 -200 184 l-23 6 0 -265z"/>
<path d="M3402 5068 c-64 -14 -75 -47 -70 -208 5 -157 28 -207 101 -224 l27 -6 0 219 c0 121 -3 222 -7 224 -5 2 -27 0 -51 -5z"/>
<path d="M3594 5066 c-2 -6 -3 -106 -2 -221 l3 -210 25 3 c66 9 101 96 101 250 1 135 -14 166 -86 182 -25 6 -38 5 -41 -4z"/>
<path d="M5040 5015 c0 -113 4 -205 8 -205 16 0 80 76 102 119 27 54 41 152 30 212 -10 56 -39 79 -96 79 l-44 0 0 -205z"/>
<path d="M4550 4655 l0 -225 44 0 c107 0 154 124 109 284 -14 49 -27 71 -69 114 -85 85 -84 87 -84 -173z"/>
<path d="M9358 5214 c-28 -8 -43 -59 -29 -105 15 -50 47 -71 103 -67 l43 3 0 85 0 85 -50 2 c-27 0 -57 -1 -67 -3z"/>
<path d="M5050 3075 l0 -225 50 0 c63 0 93 27 110 102 28 114 -16 254 -98 315 -24 18 -48 33 -53 33 -5 0 -9 -94 -9 -225z"/>
<path d="M7430 3070 l0 -220 50 0 c42 0 55 5 74 25 84 90 42 326 -69 395 -18 11 -37 20 -44 20 -8 0 -11 -63 -11 -220z"/>
<path d="M6850 3078 l0 -228 34 0 c107 0 137 154 61 315 -18 38 -46 86 -63 105 l-31 35 -1 -227z"/>
<path d="M6259 2178 c-15 -28 -7 -264 10 -295 31 -59 52 3 54 159 2 93 -1 129 -12 141 -19 23 -38 21 -52 -5z"/>
</g>
</svg>
